<?xml version="1.0" encoding="iso-8859-1"?>
<!-- Generator: Adobe Illustrator 18.0.0, SVG Export Plug-In . SVG Version: 6.00 Build 0)  -->
<!DOCTYPE svg PUBLIC "-//W3C//DTD SVG 1.1//EN" "http://www.w3.org/Graphics/SVG/1.1/DTD/svg11.dtd">
<svg version="1.1" id="Capa_1" xmlns="http://www.w3.org/2000/svg" xmlns:xlink="http://www.w3.org/1999/xlink" x="0px" y="0px"
	 viewBox="0 0 168.428 168.428" style="enable-background:new 0 0 168.428 168.428;" xml:space="preserve">
<path d="M143.764,24.666C127.857,8.76,106.709,0,84.215,0C61.721,0,40.572,8.76,24.667,24.666C8.76,40.571-0.001,61.719,0,84.213
	c0.001,22.494,8.762,43.642,24.669,59.549c15.906,15.905,37.054,24.665,59.549,24.665c22.493,0,43.64-8.759,59.544-24.663
	c15.906-15.907,24.666-37.056,24.666-59.551C168.429,61.718,159.669,40.57,143.764,24.666z M35.275,133.156
	C22.201,120.082,15,102.701,15,84.213c0-3.59,0.279-7.137,0.813-10.62c4.571,1.468,9.295,2.21,14.005,2.21
	c11.892,0,23.668-4.61,32.524-13.466c12.062-12.063,31.691-12.062,43.754,0.003c12.061,12.06,12.059,31.685-0.003,43.747
	c-12.364,12.363-16.445,30.416-11.269,46.531c-3.479,0.532-7.021,0.81-10.606,0.81C65.729,153.428,48.348,146.228,35.275,133.156z
	 M133.154,133.158c-6.89,6.89-14.984,12.129-23.8,15.562c-3.832-11.023-1.164-23.52,7.344-32.026
	c17.911-17.91,17.913-47.051,0.005-64.961C98.789,33.821,69.646,33.819,51.734,51.73c-8.507,8.507-21.005,11.177-32.026,7.345
	c3.434-8.816,8.674-16.912,15.565-23.803C48.346,22.2,65.728,15,84.215,15c18.488,0,35.869,7.2,48.942,20.273
	c13.072,13.071,20.271,30.451,20.27,48.94C153.428,102.702,146.228,120.084,133.154,133.158z"/>
<g>
</g>
<g>
</g>
<g>
</g>
<g>
</g>
<g>
</g>
<g>
</g>
<g>
</g>
<g>
</g>
<g>
</g>
<g>
</g>
<g>
</g>
<g>
</g>
<g>
</g>
<g>
</g>
<g>
</g>
</svg>
