<?xml version="1.0" encoding="iso-8859-1"?>
<!-- Generator: Adobe Illustrator 18.0.0, SVG Export Plug-In . SVG Version: 6.00 Build 0)  -->
<!DOCTYPE svg PUBLIC "-//W3C//DTD SVG 1.1//EN" "http://www.w3.org/Graphics/SVG/1.1/DTD/svg11.dtd">
<svg version="1.1" id="Capa_1" xmlns="http://www.w3.org/2000/svg" xmlns:xlink="http://www.w3.org/1999/xlink" x="0px" y="0px"
	 viewBox="0 0 189.164 189.164" style="enable-background:new 0 0 189.164 189.164;" xml:space="preserve">
<path d="M165.171,101.198h-6.617v-8.993c0-4.272-0.429-8.445-1.232-12.485h3.292c4.142,0,7.5-3.358,7.5-7.5
	c0-4.142-3.358-7.5-7.5-7.5h-8.277c-7.57-15.84-21.467-28.096-38.402-33.483c1.447-2.899,2.265-6.165,2.265-9.619
	C116.2,9.698,106.503,0,94.583,0S72.966,9.698,72.966,21.618c0,3.454,0.818,6.719,2.265,9.619
	C58.296,36.624,44.399,48.879,36.829,64.72H28.55c-4.142,0-7.5,3.358-7.5,7.5c0,4.142,3.358,7.5,7.5,7.5h3.294
	c-0.803,4.04-1.232,8.213-1.232,12.485v8.993h-6.619c-4.142,0-7.5,3.358-7.5,7.5c0,4.142,3.358,7.5,7.5,7.5h6.619v65.466
	c0,4.142,3.358,7.5,7.5,7.5h112.941c4.142,0,7.5-3.358,7.5-7.5v-65.466h6.617c4.142,0,7.5-3.358,7.5-7.5
	C172.671,104.556,169.313,101.198,165.171,101.198z M143.554,92.205v8.993h-22.646V79.72h21.027
	C142.987,83.708,143.554,87.891,143.554,92.205z M83.259,137.682v-21.483h22.648v21.483H83.259z M83.259,101.198V79.72h22.648
	v21.479H83.259z M94.583,43.237c3.898,0,7.687,0.471,11.324,1.336V64.72H83.259V44.573C86.896,43.709,90.685,43.237,94.583,43.237z
	 M135.089,64.72h-14.182V50.946C126.513,54.535,131.348,59.224,135.089,64.72z M87.966,21.618c0-3.649,2.968-6.618,6.617-6.618
	s6.617,2.969,6.617,6.618c0,3.65-2.968,6.619-6.617,6.619S87.966,25.268,87.966,21.618z M68.259,50.946V64.72H54.077
	C57.818,59.224,62.653,54.535,68.259,50.946z M45.612,92.205c0-4.314,0.566-8.497,1.619-12.485h21.027v21.479H45.612V92.205z
	 M68.259,116.198v21.483H45.612v-21.483H68.259z M45.612,174.164v-21.482h97.941v21.482H45.612z M143.554,137.682h-22.646v-21.483
	h22.646V137.682z"/>
<g>
</g>
<g>
</g>
<g>
</g>
<g>
</g>
<g>
</g>
<g>
</g>
<g>
</g>
<g>
</g>
<g>
</g>
<g>
</g>
<g>
</g>
<g>
</g>
<g>
</g>
<g>
</g>
<g>
</g>
</svg>
