<?xml version="1.0" encoding="iso-8859-1"?>
<!-- Generator: Adobe Illustrator 18.0.0, SVG Export Plug-In . SVG Version: 6.00 Build 0)  -->
<!DOCTYPE svg PUBLIC "-//W3C//DTD SVG 1.1//EN" "http://www.w3.org/Graphics/SVG/1.1/DTD/svg11.dtd">
<svg version="1.1" id="Capa_1" xmlns="http://www.w3.org/2000/svg" xmlns:xlink="http://www.w3.org/1999/xlink" x="0px" y="0px"
	 viewBox="0 0 182.251 182.251" style="enable-background:new 0 0 182.251 182.251;" xml:space="preserve">
<g>
	<path d="M148.802,57.999c-2.68-2.976-5.21-5.787-7.554-8.615c-1.209-1.459-2.015-2.608-2.55-3.478
		c0.982-0.104,2.343-0.18,4.227-0.18h17.765c0.008,0,0.016,0,0.02,0c4.143,0,7.5-3.358,7.5-7.5c0-0.229-0.01-0.455-0.029-0.678
		c-0.275-9.17-6.117-18.756-16.124-26.405C142.929,4.166,132.071,0,123.009,0c-21.996,0-36.775,12.449-36.775,30.979
		c0,60.645-19.626,96.851-52.5,96.851c-6.962,0-13.467-6.77-15.365-9.349c-1.904-2.64-5.293-3.752-8.389-2.751
		c-3.097,1-5.195,3.883-5.195,7.137c0,36.075,38.163,59.385,97.225,59.385c29.202,0,46.954-11.46,56.702-21.073
		c11.919-11.753,18.755-27.407,18.755-42.949C177.466,89.836,162.238,72.921,148.802,57.999z M102.009,167.251
		c-29.543,0-62.947-7.053-76.275-25.65c2.487,0.766,5.164,1.229,8,1.229c19.288,0,36.344-9.684,48.025-27.267
		c12.923-19.451,19.475-47.909,19.475-84.583c0-14.826,16.667-15.979,21.775-15.979c8.941,0,21.949,7.479,27.504,15.726h-7.588
		c-4.59,0-15.337,0-19.139,8.085c-3.901,8.297,3.484,17.212,5.911,20.142c2.54,3.066,5.294,6.124,7.957,9.082
		c12.198,13.548,24.811,27.558,24.811,50.193C162.466,137.182,146.053,167.251,102.009,167.251z"/>
	<path d="M137.804,95.006c-4.143,0-7.5,3.358-7.5,7.5c0,13.49-11.801,34.892-43.467,34.892c-4.143,0-7.5,3.358-7.5,7.5
		c0,4.142,3.357,7.5,7.5,7.5c37.976,0,58.467-25.706,58.467-49.892C145.304,98.364,141.947,95.006,137.804,95.006z"/>
</g>
<g>
</g>
<g>
</g>
<g>
</g>
<g>
</g>
<g>
</g>
<g>
</g>
<g>
</g>
<g>
</g>
<g>
</g>
<g>
</g>
<g>
</g>
<g>
</g>
<g>
</g>
<g>
</g>
<g>
</g>
</svg>
