<?xml version="1.0" encoding="iso-8859-1"?>
<!-- Generator: Adobe Illustrator 18.0.0, SVG Export Plug-In . SVG Version: 6.00 Build 0)  -->
<!DOCTYPE svg PUBLIC "-//W3C//DTD SVG 1.1//EN" "http://www.w3.org/Graphics/SVG/1.1/DTD/svg11.dtd">
<svg version="1.1" id="Capa_1" xmlns="http://www.w3.org/2000/svg" xmlns:xlink="http://www.w3.org/1999/xlink" x="0px" y="0px"
	 viewBox="0 0 192.896 192.896" style="enable-background:new 0 0 192.896 192.896;" xml:space="preserve">
<path d="M182.792,43.917c-6.351-6.351-14.754-9.916-23.724-10.079c-0.153-8.791-3.668-17.315-10.097-23.742
	C142.461,3.586,133.801,0,124.587,0c-9.214,0-17.874,3.585-24.382,10.094c-6.519,6.516-10.108,15.179-10.108,24.393
	c0,8.418,2.995,16.375,8.488,22.662l-41.43,41.439c-6.283-5.491-14.245-8.488-22.667-8.488c-9.213,0-17.875,3.588-24.39,10.104
	c-6.511,6.509-10.096,15.168-10.096,24.382c0,9.215,3.588,17.878,10.104,24.394c6.353,6.351,14.756,9.915,23.725,10.078
	c0.154,8.791,3.669,17.315,10.096,23.743c6.512,6.51,15.172,10.095,24.384,10.096c0.001,0,0.002,0,0.003,0
	c9.211,0,17.869-3.585,24.379-10.094c6.519-6.516,10.109-15.179,10.109-24.392c0-8.423-3-16.384-8.49-22.662l41.432-41.442
	c6.284,5.491,14.247,8.489,22.669,8.489c9.212,0,17.874-3.588,24.388-10.103c6.511-6.508,10.096-15.167,10.096-24.381
	C192.895,59.097,189.307,50.433,182.792,43.917z M172.194,82.085c-3.682,3.682-8.577,5.71-13.783,5.71
	c-5.209,0-10.107-2.029-13.793-5.714c-0.847-0.847-1.642-1.817-2.364-2.885c-1.254-1.854-3.271-3.051-5.499-3.264
	c-2.229-0.217-4.435,0.58-6.018,2.163l-52.637,52.65c-1.584,1.585-2.377,3.795-2.161,6.025c0.216,2.231,1.418,4.248,3.276,5.499
	c1.063,0.715,2.001,1.486,2.875,2.36c3.682,3.681,5.71,8.574,5.71,13.779c-0.001,5.206-2.03,10.101-5.714,13.785
	c-3.678,3.677-8.569,5.702-13.774,5.702c0,0-0.002,0-0.002,0c-5.207,0-10.102-2.026-13.78-5.704
	c-5.139-5.139-6.979-12.659-4.803-19.626c0.832-2.663,0.117-5.567-1.855-7.54c-1.428-1.428-3.344-2.197-5.304-2.197
	c-0.747,0-1.5,0.111-2.235,0.341c-1.896,0.592-3.867,0.892-5.86,0.892c-5.204,0-10.092-2.021-13.763-5.691
	c-3.682-3.682-5.709-8.578-5.709-13.787c0-5.206,2.025-10.098,5.702-13.774c3.683-3.682,8.578-5.71,13.784-5.71
	c5.209,0,10.107,2.029,13.787,5.708c0.85,0.851,1.648,1.824,2.372,2.893c1.254,1.853,3.271,3.048,5.498,3.26
	c2.229,0.21,4.434-0.581,6.015-2.164l52.637-52.648c1.584-1.583,2.376-3.792,2.162-6.021c-0.214-2.229-1.413-4.246-3.269-5.498
	c-1.055-0.712-2.028-1.51-2.883-2.362c-3.681-3.681-5.709-8.576-5.708-13.781c0-5.207,2.029-10.103,5.714-13.786
	c3.677-3.677,8.569-5.702,13.777-5.702c5.208,0,10.101,2.026,13.779,5.705c5.14,5.139,6.98,12.658,4.803,19.624
	c-0.833,2.663-0.118,5.567,1.854,7.54c1.972,1.973,4.877,2.688,7.54,1.856c1.895-0.592,3.867-0.892,5.86-0.892
	c5.205,0,10.092,2.021,13.762,5.69c3.682,3.683,5.71,8.58,5.71,13.789C177.895,73.519,175.871,78.41,172.194,82.085z"/>
<g>
</g>
<g>
</g>
<g>
</g>
<g>
</g>
<g>
</g>
<g>
</g>
<g>
</g>
<g>
</g>
<g>
</g>
<g>
</g>
<g>
</g>
<g>
</g>
<g>
</g>
<g>
</g>
<g>
</g>
</svg>
