<?xml version="1.0" encoding="iso-8859-1"?>
<!-- Generator: Adobe Illustrator 18.0.0, SVG Export Plug-In . SVG Version: 6.00 Build 0)  -->
<!DOCTYPE svg PUBLIC "-//W3C//DTD SVG 1.1//EN" "http://www.w3.org/Graphics/SVG/1.1/DTD/svg11.dtd">
<svg version="1.1" id="Capa_1" xmlns="http://www.w3.org/2000/svg" xmlns:xlink="http://www.w3.org/1999/xlink" x="0px" y="0px"
	 viewBox="0 0 200.25 200.25" style="enable-background:new 0 0 200.25 200.25;" xml:space="preserve">
<path d="M197.193,113.321c-2.431-6.069-7.471-18.658-17.388-44.284c-0.188-0.648-0.474-1.274-0.845-1.865
	c-5.714-10.285-32.107-20.859-78.836-20.859c-47.76,0-74.276,11.046-79.183,21.54c-0.093,0.187-0.181,0.375-0.257,0.566
	c-0.007,0.019-0.017,0.037-0.024,0.055C10.6,94.484,5.505,107.207,3.057,113.321C0.173,120.525,0,120.956,0,123.281
	c0,10.395,10.732,18.131,32.811,23.65c18.072,4.518,41.978,7.006,67.314,7.006s49.242-2.488,67.314-7.006
	c22.078-5.519,32.811-13.255,32.811-23.65C200.25,120.956,200.077,120.525,197.193,113.321z M159.091,70.309
	c-10.01,4.596-28.991,10.74-58.966,10.74c-29.978,0-48.956-6.145-58.965-10.74c8.954-4.016,27.149-8.996,58.965-8.996
	C131.941,61.313,150.137,66.293,159.091,70.309z M160.414,133.183c-16.497,3.711-37.908,5.755-60.289,5.755
	s-43.792-2.044-60.289-5.755c-18.305-4.118-23.392-8.546-24.587-9.926c0.374-0.964,0.972-2.458,1.733-4.359
	c2.18-5.444,6.451-16.114,14.425-36.642c10.969,5.66,32.946,13.794,68.718,13.794c35.773,0,57.749-8.135,68.717-13.794
	c7.974,20.528,12.246,31.198,14.426,36.642c0.762,1.902,1.359,3.396,1.733,4.359C183.807,124.637,178.719,129.065,160.414,133.183z"
	/>
<g>
</g>
<g>
</g>
<g>
</g>
<g>
</g>
<g>
</g>
<g>
</g>
<g>
</g>
<g>
</g>
<g>
</g>
<g>
</g>
<g>
</g>
<g>
</g>
<g>
</g>
<g>
</g>
<g>
</g>
</svg>
