<?xml version="1.0" encoding="iso-8859-1"?>
<!-- Generator: Adobe Illustrator 18.0.0, SVG Export Plug-In . SVG Version: 6.00 Build 0)  -->
<!DOCTYPE svg PUBLIC "-//W3C//DTD SVG 1.1//EN" "http://www.w3.org/Graphics/SVG/1.1/DTD/svg11.dtd">
<svg version="1.1" id="Capa_1" xmlns="http://www.w3.org/2000/svg" xmlns:xlink="http://www.w3.org/1999/xlink" x="0px" y="0px"
	 viewBox="0 0 179.272 179.272" style="enable-background:new 0 0 179.272 179.272;" xml:space="preserve">
<path d="M163.447,23.984c-4.949-4.951-11.531-7.677-18.532-7.677c-7.001,0-13.583,2.727-18.532,7.677l-3.433,3.432L97.732,2.197
	c-2.929-2.929-7.678-2.929-10.606,0c-2.93,2.929-2.93,7.677-0.001,10.606l25.219,25.22l-6.45,6.451L80.673,19.255
	c-2.928-2.93-7.677-2.929-10.606,0c-2.929,2.929-2.929,7.678,0.001,10.606l25.22,25.219l-6.448,6.448l-25.22-25.22
	c-2.93-2.929-7.678-2.929-10.607,0c-2.929,2.929-2.929,7.678,0,10.606l25.221,25.22l-6.447,6.447l-25.219-25.22
	c-2.929-2.929-7.678-2.93-10.606,0c-2.93,2.929-2.93,7.677-0.001,10.606l25.22,25.22L15.837,134.53
	c-4.951,4.95-7.677,11.532-7.677,18.533c0,7.001,2.727,13.582,7.676,18.532c4.949,4.95,11.531,7.677,18.533,7.677
	c0.001,0,0.001,0,0.001,0c7.001,0,13.582-2.726,18.532-7.676L163.449,61.05C173.668,50.829,173.666,34.201,163.447,23.984z
	 M152.842,50.444L42.295,160.99c-2.116,2.117-4.931,3.282-7.924,3.282H34.37c-2.995,0-5.811-1.166-7.927-3.283
	c-2.117-2.117-3.283-4.932-3.283-7.926c0-2.994,1.166-5.809,3.283-7.926l67.696-67.696c0.001-0.001,0.002-0.002,0.003-0.003
	c0.001-0.001,0.002-0.002,0.003-0.003l17.048-17.048c0.001-0.001,0.003-0.003,0.004-0.003c0.001-0.001,0.002-0.003,0.004-0.004
	l25.789-25.79c2.116-2.117,4.931-3.283,7.925-3.283c2.994,0,5.809,1.165,7.926,3.284C157.212,38.961,157.212,46.073,152.842,50.444z
	"/>
<g>
</g>
<g>
</g>
<g>
</g>
<g>
</g>
<g>
</g>
<g>
</g>
<g>
</g>
<g>
</g>
<g>
</g>
<g>
</g>
<g>
</g>
<g>
</g>
<g>
</g>
<g>
</g>
<g>
</g>
</svg>
