<?xml version="1.0" encoding="iso-8859-1"?>
<!-- Generator: Adobe Illustrator 18.0.0, SVG Export Plug-In . SVG Version: 6.00 Build 0)  -->
<!DOCTYPE svg PUBLIC "-//W3C//DTD SVG 1.1//EN" "http://www.w3.org/Graphics/SVG/1.1/DTD/svg11.dtd">
<svg version="1.1" id="Capa_1" xmlns="http://www.w3.org/2000/svg" xmlns:xlink="http://www.w3.org/1999/xlink" x="0px" y="0px"
	 viewBox="0 0 205.797 205.797" style="enable-background:new 0 0 205.797 205.797;" xml:space="preserve">
<path d="M198.297,107.489h-13.262l-26.424-70.137c-1.101-2.922-3.896-4.856-7.019-4.856h-15.273v-16.68c0-4.142-3.357-7.5-7.5-7.5
	H76.974c-4.143,0-7.5,3.358-7.5,7.5v16.68H54.201c-3.122,0-5.918,1.934-7.019,4.856L20.76,107.489H7.5c-4.143,0-7.5,3.358-7.5,7.5
	s3.357,7.5,7.5,7.5h13.26l26.423,70.135c1.101,2.922,3.897,4.856,7.019,4.856h97.392c3.122,0,5.918-1.934,7.019-4.856l26.424-70.135
	h13.262c4.143,0,7.5-3.358,7.5-7.5S202.439,107.489,198.297,107.489z M84.474,23.316h36.846v9.18H84.474V23.316z M59.391,47.496
	h17.583h51.846h17.584l22.602,59.993h-20.87l-12.297-32.641c-1.101-2.922-3.896-4.856-7.019-4.856H76.975
	c-3.122,0-5.918,1.934-7.019,4.856l-12.297,32.641h-20.87L59.391,47.496z M109.171,84.992v22.497H96.625V84.992H109.171z
	 M84.625,107.489H73.688l8.476-22.497h2.461V107.489z M84.625,122.489v22.496h-2.461l-8.476-22.496H84.625z M96.625,122.489h12.546
	v22.496H96.625V122.489z M121.171,122.489h10.934l-8.475,22.496h-2.46V122.489z M121.171,107.489V84.992h2.46l8.476,22.497H121.171z
	 M146.403,182.48H59.391l-22.602-59.991h20.87l12.297,32.64c1.101,2.922,3.896,4.856,7.019,4.856h51.846
	c3.122,0,5.918-1.934,7.019-4.856l12.297-32.64h20.87L146.403,182.48z"/>
<g>
</g>
<g>
</g>
<g>
</g>
<g>
</g>
<g>
</g>
<g>
</g>
<g>
</g>
<g>
</g>
<g>
</g>
<g>
</g>
<g>
</g>
<g>
</g>
<g>
</g>
<g>
</g>
<g>
</g>
</svg>
