<?xml version="1.0" encoding="iso-8859-1"?>
<!-- Generator: Adobe Illustrator 18.0.0, SVG Export Plug-In . SVG Version: 6.00 Build 0)  -->
<!DOCTYPE svg PUBLIC "-//W3C//DTD SVG 1.1//EN" "http://www.w3.org/Graphics/SVG/1.1/DTD/svg11.dtd">
<svg version="1.1" id="Capa_1" xmlns="http://www.w3.org/2000/svg" xmlns:xlink="http://www.w3.org/1999/xlink" x="0px" y="0px"
	 viewBox="0 0 192.896 192.896" style="enable-background:new 0 0 192.896 192.896;" xml:space="preserve">
<path d="M136.823,0H76.261H56.073c-4.142,0-7.5,3.358-7.5,7.5v29.768c0,4.142,3.358,7.5,7.5,7.5h20.187h10.742L69.104,62.668
	c-2.929,2.929-2.928,7.678,0,10.607c1.465,1.464,3.384,2.196,5.303,2.196c1.919,0,3.839-0.732,5.304-2.197l17.897-17.899v5.162
	L50.77,107.377c-1.407,1.406-2.197,3.314-2.197,5.303v72.716c0,4.142,3.358,7.5,7.5,7.5h80.75c4.142,0,7.5-3.358,7.5-7.5V37.268V7.5
	C144.323,3.358,140.965,0,136.823,0z M129.323,29.767h-24.215H83.761V15h45.563V29.767z M63.573,29.767V15h5.187v14.767H63.573z
	 M129.323,177.896h-65.75v-62.109l46.838-46.839c1.407-1.406,2.197-3.314,2.197-5.303V44.768h16.715V177.896z"/>
<g>
</g>
<g>
</g>
<g>
</g>
<g>
</g>
<g>
</g>
<g>
</g>
<g>
</g>
<g>
</g>
<g>
</g>
<g>
</g>
<g>
</g>
<g>
</g>
<g>
</g>
<g>
</g>
<g>
</g>
</svg>
