<?xml version="1.0" encoding="iso-8859-1"?>
<!-- Generator: Adobe Illustrator 18.0.0, SVG Export Plug-In . SVG Version: 6.00 Build 0)  -->
<!DOCTYPE svg PUBLIC "-//W3C//DTD SVG 1.1//EN" "http://www.w3.org/Graphics/SVG/1.1/DTD/svg11.dtd">
<svg version="1.1" id="Capa_1" xmlns="http://www.w3.org/2000/svg" xmlns:xlink="http://www.w3.org/1999/xlink" x="0px" y="0px"
	 viewBox="0 0 191.428 191.428" style="enable-background:new 0 0 191.428 191.428;" xml:space="preserve">
<path d="M159.909,28.736c-17.238-4.31-40.037-6.683-64.195-6.683c-24.158,0-46.957,2.374-64.195,6.683
	C10.31,34.038,0,41.519,0,51.607v44.107c0,10.087,10.31,17.568,31.519,22.87c11.078,2.77,24.458,4.734,39.013,5.789
	c-2.77,4.498-4.372,9.789-4.372,15.448c0,16.296,13.258,29.554,29.554,29.554c16.297,0,29.555-13.258,29.555-29.554
	c0-5.659-1.602-10.95-4.372-15.449c14.555-1.054,27.935-3.019,39.013-5.789c21.209-5.302,31.519-12.783,31.519-22.87V51.607
	C191.428,41.519,181.118,34.038,159.909,28.736z M38.718,42.448c15.637-3.479,35.878-5.395,56.996-5.395
	c21.118,0,41.359,1.916,56.995,5.395c15.518,3.453,21.696,7.348,23.383,9.158c-1.687,1.811-7.865,5.706-23.383,9.159
	c-15.637,3.479-35.878,5.395-56.995,5.395c-21.117,0-41.358-1.916-56.995-5.395c-15.517-3.453-21.696-7.348-23.383-9.158
	C17.021,49.796,23.201,45.9,38.718,42.448z M110.269,139.821c0,8.025-6.529,14.554-14.555,14.554
	c-8.025,0-14.554-6.529-14.554-14.554c0-8.025,6.529-14.554,14.554-14.554C103.739,125.268,110.269,131.796,110.269,139.821z
	 M152.709,104.872c-15.637,3.479-35.878,5.396-56.995,5.396c-21.117,0-41.358-1.916-56.995-5.396
	C21.904,101.131,16.05,96.868,15,95.303V68.94c4.483,2.061,9.981,3.903,16.519,5.537c17.239,4.31,40.038,6.684,64.195,6.684
	c24.158,0,46.956-2.373,64.195-6.684c6.537-1.634,12.035-3.477,16.519-5.537v26.364C175.378,96.868,169.524,101.131,152.709,104.872
	z"/>
<g>
</g>
<g>
</g>
<g>
</g>
<g>
</g>
<g>
</g>
<g>
</g>
<g>
</g>
<g>
</g>
<g>
</g>
<g>
</g>
<g>
</g>
<g>
</g>
<g>
</g>
<g>
</g>
<g>
</g>
</svg>
