<?xml version="1.0" encoding="iso-8859-1"?>
<!-- Generator: Adobe Illustrator 18.0.0, SVG Export Plug-In . SVG Version: 6.00 Build 0)  -->
<!DOCTYPE svg PUBLIC "-//W3C//DTD SVG 1.1//EN" "http://www.w3.org/Graphics/SVG/1.1/DTD/svg11.dtd">
<svg version="1.1" id="Capa_1" xmlns="http://www.w3.org/2000/svg" xmlns:xlink="http://www.w3.org/1999/xlink" x="0px" y="0px"
	 viewBox="0 0 198.967 198.967" style="enable-background:new 0 0 198.967 198.967;" xml:space="preserve">
<path d="M181.32,118.14c1.413-3.498,2.154-7.265,2.154-11.129c0-14.286-10.129-26.25-23.582-29.092
	c0.419-2.386,0.663-4.808,0.729-7.255l0.009-0.283c0.012-0.357,0.022-0.713,0.022-1.073c0-0.358-0.011-0.714-0.022-1.071
	l-0.009-0.276c-0.348-12.914-5.636-25-14.893-34.029c-9.276-9.05-21.523-14.034-34.485-14.034c-4.142,0-7.5,3.358-7.5,7.5
	s3.358,7.5,7.5,7.5c1.289,0,2.337,1.049,2.337,2.338c0,1.29-1.049,2.34-2.338,2.34H68.832c-16.394,0-29.731,13.338-29.731,29.732
	c0,2.872,0.408,5.689,1.196,8.379c-14.057,2.355-24.803,14.608-24.803,29.323c0,3.864,0.741,7.631,2.153,11.128
	C7.103,123.491,0,134.448,0,146.865c0,17.757,14.446,32.203,32.202,32.203h134.563c17.756,0,32.202-14.446,32.202-32.203
	C198.967,134.45,191.863,123.493,181.32,118.14z M68.832,54.577h42.411c8.815,0,16.115-6.615,17.199-15.142
	c10.047,5.753,16.85,16.444,17.185,28.939l0.012,0.361c0.006,0.191,0.014,0.382,0.014,0.574c0,0.192-0.008,0.383-0.014,0.574
	l-0.012,0.367c-0.064,2.388-0.378,4.738-0.92,7.029h-88.26c-1.526-2.359-2.348-5.108-2.348-7.971
	C54.101,61.186,60.709,54.577,68.832,54.577z M45.226,92.28h7.649h97.317h3.549c8.124,0,14.733,6.608,14.733,14.731
	c0,2.809-0.797,5.512-2.272,7.847H32.765c-1.475-2.334-2.271-5.038-2.271-7.847C30.494,98.888,37.103,92.28,45.226,92.28z
	 M166.765,164.068H32.202c-9.485,0-17.202-7.717-17.202-17.203c0-8.555,6.313-15.8,14.733-17.007h139.498
	c8.422,1.207,14.735,8.453,14.735,17.007C183.967,156.351,176.25,164.068,166.765,164.068z"/>
<g>
</g>
<g>
</g>
<g>
</g>
<g>
</g>
<g>
</g>
<g>
</g>
<g>
</g>
<g>
</g>
<g>
</g>
<g>
</g>
<g>
</g>
<g>
</g>
<g>
</g>
<g>
</g>
<g>
</g>
</svg>
