<?xml version="1.0" encoding="iso-8859-1"?>
<!-- Generator: Adobe Illustrator 18.0.0, SVG Export Plug-In . SVG Version: 6.00 Build 0)  -->
<!DOCTYPE svg PUBLIC "-//W3C//DTD SVG 1.1//EN" "http://www.w3.org/Graphics/SVG/1.1/DTD/svg11.dtd">
<svg version="1.1" id="Capa_1" xmlns="http://www.w3.org/2000/svg" xmlns:xlink="http://www.w3.org/1999/xlink" x="0px" y="0px"
	 viewBox="0 0 245.76 245.76" style="enable-background:new 0 0 245.76 245.76;" xml:space="preserve">
<g>
	<path d="M175.413,89.366c-3.027-1.348-6.574,0.011-7.923,3.039c-4.266,9.572-6.428,19.866-6.428,30.596
		c0,10.662,2.134,20.889,6.341,30.398c0.992,2.241,3.189,3.574,5.49,3.574c0.812,0,1.636-0.166,2.425-0.515
		c3.03-1.341,4.4-4.884,3.059-7.915c-3.527-7.97-5.315-16.564-5.315-25.543c0-9.036,1.814-17.687,5.389-25.712
		C179.8,94.261,178.44,90.715,175.413,89.366z"/>
	<path d="M244.1,118.177c-1.834-2.275-45.547-55.729-101.119-55.729c-44.187,0-80.878,33.796-94.977,48.785L13.422,66.735
		c-1.967-2.531-5.323-3.533-8.355-2.493C2.036,65.281,0,68.132,0,71.337v103.46c0,3.205,2.036,6.055,5.067,7.095
		c0.798,0.273,1.619,0.406,2.431,0.406c2.272,0,4.475-1.035,5.923-2.898l34.739-44.703c14.212,15.07,50.793,48.618,94.817,48.617
		c0.003,0,0,0,0.003,0c55.571,0,99.285-53.447,101.118-55.723C246.314,124.842,246.314,120.924,244.1,118.177z M15,152.923V93.209
		l23.203,29.856L15,152.923z M142.979,168.312c-39.386,0.002-73.708-32.967-85.28-45.438c11.553-12.481,45.793-45.426,85.282-45.426
		c39.381,0,73.697,32.957,85.276,45.435C216.674,135.365,182.36,168.312,142.979,168.312z"/>
	<path d="M137.555,106.116c-1.561-3.079-5.321-4.308-8.401-2.748l-27.482,13.938c-2.1,1.065-3.423,3.22-3.423,5.574
		s1.323,4.509,3.423,5.574l27.482,13.936c0.906,0.46,1.871,0.677,2.822,0.677c2.279,0,4.477-1.253,5.579-3.425
		c1.561-3.079,0.331-6.84-2.747-8.401l-16.491-8.362l16.491-8.363C137.886,112.956,139.116,109.195,137.555,106.116z"/>
</g>
<g>
</g>
<g>
</g>
<g>
</g>
<g>
</g>
<g>
</g>
<g>
</g>
<g>
</g>
<g>
</g>
<g>
</g>
<g>
</g>
<g>
</g>
<g>
</g>
<g>
</g>
<g>
</g>
<g>
</g>
</svg>
