<?xml version="1.0" encoding="iso-8859-1"?>
<!-- Generator: Adobe Illustrator 18.0.0, SVG Export Plug-In . SVG Version: 6.00 Build 0)  -->
<!DOCTYPE svg PUBLIC "-//W3C//DTD SVG 1.1//EN" "http://www.w3.org/Graphics/SVG/1.1/DTD/svg11.dtd">
<svg version="1.1" id="Capa_1" xmlns="http://www.w3.org/2000/svg" xmlns:xlink="http://www.w3.org/1999/xlink" x="0px" y="0px"
	 viewBox="0 0 180.871 180.871" style="enable-background:new 0 0 180.871 180.871;" xml:space="preserve">
<g>
	<path d="M137.768,37.514l15.166-26.264c1.34-2.321,1.34-5.18,0-7.5C151.595,1.43,149.119,0,146.439,0H34.433
		c-2.68,0-5.155,1.43-6.495,3.75c-1.34,2.321-1.34,5.18,0,7.5l15.165,26.264C18.219,53.536,3.058,81.016,3.058,110.955
		c0,26.692,11.984,51.577,32.878,68.275c1.329,1.063,2.98,1.641,4.682,1.641h99.633c1.702,0,3.353-0.579,4.682-1.641
		c20.895-16.698,32.879-41.583,32.879-68.275C177.813,81.017,162.649,53.536,137.768,37.514z M137.552,165.871H43.319
		c-16.086-13.797-25.261-33.667-25.261-54.916c0-26.963,14.852-51.522,38.76-64.092c1.806-0.949,3.147-2.594,3.714-4.554
		c0.567-1.96,0.311-4.067-0.71-5.834L47.424,15h86.024l-12.4,21.474c-1.021,1.767-1.276,3.874-0.71,5.834
		c0.567,1.96,1.908,3.605,3.714,4.555c23.908,12.569,38.76,37.128,38.76,64.092C162.813,132.204,153.638,152.074,137.552,165.871z"
		/>
	<path d="M121.712,86.817c-3.032-1.037-6.388-0.037-8.354,2.493l-4.847,6.236c-5.328-4.451-13.478-9.481-23.101-9.481
		c-16.274,0-28.337,14.387-29.659,16.027c-2.213,2.747-2.213,6.665,0,9.412c1.322,1.64,13.385,16.026,29.661,16.025
		c9.597,0,17.727-5.003,23.055-9.445l4.891,6.293c1.449,1.864,3.651,2.898,5.923,2.898c0.812,0,1.633-0.132,2.431-0.406
		c3.031-1.04,5.067-3.89,5.067-7.095V93.912C126.779,90.707,124.743,87.857,121.712,86.817z M85.412,112.53H85.41
		c-4.768,0.001-9.582-2.858-13.13-5.731c3.538-2.858,8.367-5.734,13.13-5.734c4.767,0,9.582,2.859,13.13,5.732
		C95.002,109.655,90.174,112.53,85.412,112.53z"/>
</g>
<g>
</g>
<g>
</g>
<g>
</g>
<g>
</g>
<g>
</g>
<g>
</g>
<g>
</g>
<g>
</g>
<g>
</g>
<g>
</g>
<g>
</g>
<g>
</g>
<g>
</g>
<g>
</g>
<g>
</g>
</svg>
