<?xml version="1.0" encoding="iso-8859-1"?>
<!-- Generator: Adobe Illustrator 18.0.0, SVG Export Plug-In . SVG Version: 6.00 Build 0)  -->
<!DOCTYPE svg PUBLIC "-//W3C//DTD SVG 1.1//EN" "http://www.w3.org/Graphics/SVG/1.1/DTD/svg11.dtd">
<svg version="1.1" id="Capa_1" xmlns="http://www.w3.org/2000/svg" xmlns:xlink="http://www.w3.org/1999/xlink" x="0px" y="0px"
	 viewBox="0 0 192.914 192.914" style="enable-background:new 0 0 192.914 192.914;" xml:space="preserve">
<path d="M180.686,36.475C180.686,16.362,164.319,0,144.202,0c-20.112,0-36.475,16.362-36.475,36.475
	c0,16.245,21.857,49.786,28.967,60.268v63.775c0,9.592-7.805,17.396-17.398,17.396c-9.589,0-17.39-7.804-17.39-17.396V32.395
	C101.907,14.532,87.376,0,69.515,0C51.651,0,37.118,14.532,37.118,32.395v95.733h-17.39c-4.142,0-7.5,3.358-7.5,7.5
	c0,3.376,2.231,6.23,5.298,7.17c-3.345,5.097-5.298,11.185-5.298,17.724c0,17.861,14.53,32.393,32.39,32.393
	c17.863,0,32.396-14.531,32.396-32.393c0-6.539-1.954-12.626-5.299-17.723c3.068-0.94,5.299-3.794,5.299-7.17
	c0-4.142-3.358-7.5-7.5-7.5H52.118V32.395C52.118,22.803,59.922,15,69.515,15c9.59,0,17.393,7.803,17.393,17.395v128.123
	c0,17.863,14.53,32.396,32.39,32.396c17.864,0,32.398-14.533,32.398-32.396V96.766C158.791,86.31,180.686,52.731,180.686,36.475z
	 M44.618,177.914c-9.589,0-17.39-7.802-17.39-17.393c0-9.591,7.801-17.394,17.39-17.394c9.592,0,17.396,7.803,17.396,17.394
	C62.015,170.112,54.21,177.914,44.618,177.914z M144.202,15c11.846,0,21.483,9.633,21.483,21.475
	c0,7.809-11.132,28.176-21.482,44.386c-10.347-16.209-21.476-36.577-21.476-44.386C122.728,24.633,132.361,15,144.202,15z"/>
<g>
</g>
<g>
</g>
<g>
</g>
<g>
</g>
<g>
</g>
<g>
</g>
<g>
</g>
<g>
</g>
<g>
</g>
<g>
</g>
<g>
</g>
<g>
</g>
<g>
</g>
<g>
</g>
<g>
</g>
</svg>
