<?xml version="1.0" encoding="iso-8859-1"?>
<!-- Generator: Adobe Illustrator 18.0.0, SVG Export Plug-In . SVG Version: 6.00 Build 0)  -->
<!DOCTYPE svg PUBLIC "-//W3C//DTD SVG 1.1//EN" "http://www.w3.org/Graphics/SVG/1.1/DTD/svg11.dtd">
<svg version="1.1" id="Capa_1" xmlns="http://www.w3.org/2000/svg" xmlns:xlink="http://www.w3.org/1999/xlink" x="0px" y="0px"
	 viewBox="0 0 225.501 225.501" style="enable-background:new 0 0 225.501 225.501;" xml:space="preserve">
<path d="M218.001,79.761h-4.274c-2.812-12.08-12.318-20.995-23.585-20.995c-3.515,0-6.92,0.857-10.035,2.485
	c-4.324-4.258-9.846-6.651-15.763-6.651c-3.517,0-6.921,0.856-10.034,2.483c-4.324-4.257-9.846-6.649-15.762-6.649
	c-3.515,0-6.92,0.856-10.033,2.484c-4.324-4.259-9.847-6.652-15.764-6.652c-5.917,0-11.44,2.394-15.765,6.652
	c-3.113-1.628-6.518-2.484-10.033-2.484c-5.915,0-11.438,2.394-15.762,6.651c-3.114-1.629-6.519-2.485-10.034-2.485
	c-5.917,0-11.439,2.394-15.764,6.651c-3.114-1.628-6.519-2.485-10.032-2.485c-11.268,0-20.775,8.915-23.587,20.995H7.5
	c-4.142,0-7.5,3.357-7.5,7.5v28.345c0,4.143,3.358,7.5,7.5,7.5h4.312l6.259,49.568c0.474,3.749,3.662,6.561,7.441,6.561h174.478
	c3.779,0,6.967-2.811,7.441-6.561l6.259-49.568h4.312c4.142,0,7.5-3.357,7.5-7.5V87.261
	C225.501,83.119,222.143,79.761,218.001,79.761z M15,108.106V94.761h195.501v13.345H15z M35.361,73.766
	c2.647,0,4.64,1.643,5.846,3.021c1.637,1.871,4.091,2.805,6.56,2.506c2.466-0.304,4.623-1.809,5.757-4.021
	C55.347,71.72,58.2,69.6,61.157,69.6c2.65,0,4.642,1.642,5.847,3.02c1.636,1.87,4.097,2.807,6.56,2.507
	c2.467-0.304,4.623-1.809,5.759-4.021c1.823-3.552,4.675-5.672,7.631-5.672c2.65,0,4.64,1.641,5.843,3.018
	c1.636,1.871,4.096,2.808,6.561,2.509c2.468-0.303,4.625-1.809,5.76-4.021c1.823-3.553,4.677-5.674,7.635-5.674
	c2.957,0,5.809,2.121,7.631,5.673c1.135,2.212,3.291,3.718,5.758,4.021c2.466,0.298,4.925-0.636,6.561-2.508
	c1.204-1.377,3.196-3.019,5.846-3.019c2.957,0,5.81,2.12,7.633,5.672c1.135,2.213,3.293,3.718,5.761,4.021
	c2.471,0.301,4.925-0.638,6.561-2.511c1.202-1.376,3.19-3.016,5.841-3.016c2.956,0,5.809,2.12,7.63,5.672
	c1.135,2.211,3.291,3.717,5.757,4.021c2.466,0.296,4.923-0.635,6.56-2.506c1.206-1.378,3.199-3.021,5.85-3.021
	c3.203,0,6.094,2.409,7.808,5.995H27.552C29.266,76.175,32.158,73.766,35.361,73.766z M193.377,164.235H32.125l-5.193-41.129H198.57
	L193.377,164.235z"/>
<g>
</g>
<g>
</g>
<g>
</g>
<g>
</g>
<g>
</g>
<g>
</g>
<g>
</g>
<g>
</g>
<g>
</g>
<g>
</g>
<g>
</g>
<g>
</g>
<g>
</g>
<g>
</g>
<g>
</g>
</svg>
