<?xml version="1.0" encoding="iso-8859-1"?>
<!-- Generator: Adobe Illustrator 18.0.0, SVG Export Plug-In . SVG Version: 6.00 Build 0)  -->
<!DOCTYPE svg PUBLIC "-//W3C//DTD SVG 1.1//EN" "http://www.w3.org/Graphics/SVG/1.1/DTD/svg11.dtd">
<svg version="1.1" id="Capa_1" xmlns="http://www.w3.org/2000/svg" xmlns:xlink="http://www.w3.org/1999/xlink" x="0px" y="0px"
	 viewBox="0 0 191.428 191.428" style="enable-background:new 0 0 191.428 191.428;" xml:space="preserve">
<path d="M159.909,19.289c-17.238-4.31-40.037-6.683-64.195-6.683c-24.158,0-46.957,2.373-64.195,6.683
	C10.31,24.592,0,32.072,0,42.16v107.107c0,10.087,10.31,17.568,31.519,22.87c17.239,4.31,40.038,6.684,64.195,6.684
	c24.158,0,46.956-2.374,64.195-6.684c21.209-5.302,31.519-12.783,31.519-22.87V42.16C191.428,32.072,181.118,24.592,159.909,19.289z
	 M38.718,33.002c15.637-3.479,35.878-5.396,56.996-5.396c21.118,0,41.359,1.916,56.995,5.396
	c15.501,3.448,21.688,7.341,23.382,9.154c-1.881,1.981-9.283,6.504-27.912,10.102c-0.015,0.003-0.027,0.008-0.042,0.011
	c-0.132,0.026-0.261,0.063-0.39,0.096c-0.116,0.029-0.234,0.055-0.349,0.09c-0.085,0.025-0.166,0.06-0.25,0.089
	c-3.052,1.055-5.082,3.958-5.041,7.168v13.101c-13.999-2.104-29.842-3.205-46.394-3.205c-16.55,0-32.393,1.102-46.394,3.206v-13.11
	c0.038-3.204-1.988-6.101-5.033-7.156c-0.087-0.03-0.171-0.065-0.26-0.093c-0.111-0.034-0.227-0.059-0.341-0.087
	c-0.132-0.034-0.262-0.071-0.397-0.098c-0.014-0.003-0.027-0.008-0.042-0.011c-18.628-3.598-26.031-8.12-27.912-10.102
	C17.031,40.343,23.217,36.45,38.718,33.002z M49.32,87.991c13.783-2.219,29.675-3.385,46.394-3.385
	c16.721,0,32.612,1.166,46.394,3.385v19.985c-13.781,2.218-29.671,3.384-46.387,3.384c-16.724,0-32.618-1.166-46.4-3.386V87.991z
	 M152.709,158.426c-15.637,3.479-35.878,5.395-56.995,5.395c-21.117,0-41.358-1.916-56.995-5.395
	c-16.815-3.741-22.67-8.005-23.719-9.569V59.444c5.133,2.39,11.577,4.477,19.32,6.256v48.567c0,3.389,2.248,6.249,5.333,7.179
	c0.016,0.005,0.033,0.008,0.048,0.013c0.223,0.065,0.448,0.122,0.679,0.167c0.008,0.002,0.016,0.004,0.023,0.006
	c16.012,3.094,35.141,4.729,55.317,4.729c20.171,0,39.297-1.635,55.311-4.728c0.016-0.003,0.029-0.008,0.045-0.011
	c0.14-0.028,0.275-0.066,0.413-0.102c0.106-0.028,0.215-0.051,0.319-0.082c0.114-0.035,0.225-0.08,0.337-0.121
	c0.124-0.044,0.25-0.085,0.371-0.135c0.055-0.023,0.107-0.053,0.162-0.077c1.296-0.581,2.379-1.505,3.147-2.644
	c0.021-0.032,0.039-0.066,0.061-0.1c0.109-0.167,0.216-0.337,0.311-0.513c0.051-0.093,0.092-0.191,0.139-0.287
	c0.061-0.122,0.124-0.241,0.177-0.366c0.03-0.072,0.054-0.148,0.082-0.223c0.061-0.154,0.122-0.309,0.172-0.468
	c0.013-0.041,0.02-0.085,0.033-0.127c0.058-0.195,0.111-0.394,0.153-0.595c0.004-0.019,0.005-0.037,0.009-0.056
	c0.045-0.227,0.081-0.457,0.105-0.69c0.001-0.013,0.001-0.025,0.002-0.038c0.023-0.236,0.036-0.476,0.036-0.716
	c0-0.006,0.001-0.011,0.001-0.017V81.663c0-0.029,0-0.06,0-0.089V65.7c7.743-1.778,14.188-3.866,19.32-6.256v89.412
	C175.379,150.421,169.524,154.685,152.709,158.426z"/>
<g>
</g>
<g>
</g>
<g>
</g>
<g>
</g>
<g>
</g>
<g>
</g>
<g>
</g>
<g>
</g>
<g>
</g>
<g>
</g>
<g>
</g>
<g>
</g>
<g>
</g>
<g>
</g>
<g>
</g>
</svg>
