<?xml version="1.0" encoding="iso-8859-1"?>
<!-- Generator: Adobe Illustrator 18.0.0, SVG Export Plug-In . SVG Version: 6.00 Build 0)  -->
<!DOCTYPE svg PUBLIC "-//W3C//DTD SVG 1.1//EN" "http://www.w3.org/Graphics/SVG/1.1/DTD/svg11.dtd">
<svg version="1.1" id="Capa_1" xmlns="http://www.w3.org/2000/svg" xmlns:xlink="http://www.w3.org/1999/xlink" x="0px" y="0px"
	 viewBox="0 0 223.422 223.422" style="enable-background:new 0 0 223.422 223.422;" xml:space="preserve">
<path d="M221.226,121.67L117.015,17.459c-2.93-2.929-7.678-2.928-10.607,0L2.197,121.67c-2.929,2.929-2.929,7.678,0,10.606
	c2.929,2.929,7.678,2.929,10.607,0l17.719-17.719v86.102c0,4.142,3.358,7.5,7.5,7.5h49.126h49.125h49.125c4.143,0,7.5-3.358,7.5-7.5
	v-86.102l17.72,17.72c1.465,1.464,3.385,2.197,5.304,2.197c1.919,0,3.839-0.732,5.304-2.197
	C224.155,129.348,224.155,124.599,221.226,121.67z M94.649,193.159v-41.623c0-9.408,7.654-17.063,17.063-17.063
	c9.408,0,17.062,7.654,17.062,17.063v41.623H94.649z M177.899,193.159h-34.125v-41.623c0-17.679-14.383-32.063-32.062-32.063
	c-17.679,0-32.063,14.383-32.063,32.063v41.623H45.523V99.558l66.189-66.188l66.188,66.188V193.159z"/>
<g>
</g>
<g>
</g>
<g>
</g>
<g>
</g>
<g>
</g>
<g>
</g>
<g>
</g>
<g>
</g>
<g>
</g>
<g>
</g>
<g>
</g>
<g>
</g>
<g>
</g>
<g>
</g>
<g>
</g>
</svg>
