<?xml version="1.0" encoding="iso-8859-1"?>
<!-- Generator: Adobe Illustrator 18.0.0, SVG Export Plug-In . SVG Version: 6.00 Build 0)  -->
<!DOCTYPE svg PUBLIC "-//W3C//DTD SVG 1.1//EN" "http://www.w3.org/Graphics/SVG/1.1/DTD/svg11.dtd">
<svg version="1.1" id="Capa_1" xmlns="http://www.w3.org/2000/svg" xmlns:xlink="http://www.w3.org/1999/xlink" x="0px" y="0px"
	 viewBox="0 0 180.871 180.871" style="enable-background:new 0 0 180.871 180.871;" xml:space="preserve">
<g>
	<path d="M162.323,171.986L149.507,56.412c-0.421-3.799-3.632-6.673-7.454-6.673h-10.971v-9.082C131.083,18.238,112.843,0,90.424,0
		c-22.415,0-40.65,18.238-40.65,40.656v9.082H38.798c-3.822,0-7.033,2.875-7.454,6.673L18.466,172.544
		c-0.235,2.12,0.443,4.24,1.866,5.829c1.423,1.589,3.455,2.498,5.588,2.498h129.01c0.007,0,0.013,0,0.02,0
		c4.142,0,7.5-3.358,7.5-7.5C162.45,172.898,162.406,172.435,162.323,171.986z M64.774,40.656C64.774,26.509,76.281,15,90.424,15
		c14.148,0,25.658,11.509,25.658,25.656v9.082H64.774V40.656z M34.298,165.871L45.512,64.738h89.827l11.214,101.133H34.298z"/>
	<path d="M90.424,106.726c-11.281,0-20.459,9.178-20.459,20.46c0,11.282,9.178,20.46,20.459,20.46
		c11.281,0,20.459-9.178,20.459-20.46C110.883,115.905,101.706,106.726,90.424,106.726z"/>
	<path d="M78.294,100.266c4.771,0,8.652-3.881,8.652-8.651s-3.881-8.651-8.652-8.651c-4.771,0-8.652,3.881-8.652,8.651
		S73.523,100.266,78.294,100.266z"/>
	<path d="M102.557,82.963c-4.771,0-8.652,3.881-8.652,8.651s3.881,8.651,8.652,8.651c4.77,0,8.65-3.881,8.65-8.651
		S107.327,82.963,102.557,82.963z"/>
	<path d="M60.819,100.712c-4.321,0-7.836,3.515-7.836,7.836s3.515,7.836,7.836,7.836s7.836-3.515,7.836-7.836
		S65.14,100.712,60.819,100.712z"/>
	<path d="M120.03,100.712c-4.321,0-7.836,3.515-7.836,7.836s3.515,7.836,7.836,7.836s7.836-3.515,7.836-7.836
		S124.351,100.712,120.03,100.712z"/>
</g>
<g>
</g>
<g>
</g>
<g>
</g>
<g>
</g>
<g>
</g>
<g>
</g>
<g>
</g>
<g>
</g>
<g>
</g>
<g>
</g>
<g>
</g>
<g>
</g>
<g>
</g>
<g>
</g>
<g>
</g>
</svg>
