<?xml version="1.0" encoding="iso-8859-1"?>
<!-- Generator: Adobe Illustrator 18.0.0, SVG Export Plug-In . SVG Version: 6.00 Build 0)  -->
<!DOCTYPE svg PUBLIC "-//W3C//DTD SVG 1.1//EN" "http://www.w3.org/Graphics/SVG/1.1/DTD/svg11.dtd">
<svg version="1.1" id="Capa_1" xmlns="http://www.w3.org/2000/svg" xmlns:xlink="http://www.w3.org/1999/xlink" x="0px" y="0px"
	 viewBox="0 0 192.896 192.896" style="enable-background:new 0 0 192.896 192.896;" xml:space="preserve">
<g>
	<path d="M160.74,162.448c10.648-29.888,10.647-102.114,0-131.999l3.095-21.9c0.304-2.151-0.339-4.328-1.764-5.968
		C160.647,0.942,158.582,0,156.409,0H36.491c-2.172,0-4.237,0.941-5.662,2.581c-1.424,1.64-2.068,3.816-1.765,5.967l3.089,21.9
		c-10.646,29.885-10.646,102.11,0,131.999l-3.093,21.901c-0.304,2.151,0.34,4.328,1.764,5.967c1.425,1.64,3.49,2.581,5.662,2.581
		h119.916c0.006,0,0.013,0,0.02,0c4.142,0,7.5-3.358,7.5-7.5c0-0.551-0.06-1.088-0.172-1.605L160.74,162.448z M45.207,154.111
		c-8.053-27.27-8.053-88.059,0-115.326h102.482c8.054,27.268,8.054,88.057,0,115.326H45.207z M147.775,15l-1.242,8.785H46.363
		L45.124,15H147.775z M45.121,177.896l1.241-8.785h100.17l1.239,8.785H45.121z"/>
	<path d="M96.448,87.87c-11.282,0-20.461,9.178-20.461,20.46c0,11.282,9.179,20.46,20.461,20.46c11.281,0,20.459-9.178,20.459-20.46
		C116.907,97.048,107.73,87.87,96.448,87.87z"/>
	<path d="M84.318,81.409c4.77,0,8.65-3.881,8.65-8.651s-3.88-8.651-8.65-8.651c-4.771,0-8.652,3.881-8.652,8.651
		S79.547,81.409,84.318,81.409z"/>
	<path d="M108.579,64.106c-4.77,0-8.65,3.881-8.65,8.651s3.88,8.651,8.65,8.651c4.771,0,8.652-3.881,8.652-8.651
		S113.35,64.106,108.579,64.106z"/>
	<path d="M66.843,81.855c-4.321,0-7.836,3.515-7.836,7.836s3.515,7.836,7.836,7.836s7.836-3.515,7.836-7.836
		S71.164,81.855,66.843,81.855z"/>
	<path d="M126.054,81.855c-4.321,0-7.836,3.515-7.836,7.836s3.515,7.836,7.836,7.836c4.321,0,7.836-3.515,7.836-7.836
		S130.375,81.855,126.054,81.855z"/>
</g>
<g>
</g>
<g>
</g>
<g>
</g>
<g>
</g>
<g>
</g>
<g>
</g>
<g>
</g>
<g>
</g>
<g>
</g>
<g>
</g>
<g>
</g>
<g>
</g>
<g>
</g>
<g>
</g>
<g>
</g>
</svg>
