<?xml version="1.0" encoding="iso-8859-1"?>
<!-- Generator: Adobe Illustrator 18.0.0, SVG Export Plug-In . SVG Version: 6.00 Build 0)  -->
<!DOCTYPE svg PUBLIC "-//W3C//DTD SVG 1.1//EN" "http://www.w3.org/Graphics/SVG/1.1/DTD/svg11.dtd">
<svg version="1.1" id="Capa_1" xmlns="http://www.w3.org/2000/svg" xmlns:xlink="http://www.w3.org/1999/xlink" x="0px" y="0px"
	 viewBox="0 0 182.01 182.01" style="enable-background:new 0 0 182.01 182.01;" xml:space="preserve">
<path d="M179.546,96.165c-3.285-7.933-9.462-14.106-17.387-17.383c-3.928-1.626-8.06-2.45-12.282-2.45
	c-10.475,0-20.047,5.03-26.002,13.252L84.916,73.443L56.415,4.634c-1.585-3.827-5.973-5.649-9.799-4.059
	c-3.827,1.585-5.645,5.972-4.059,9.799l22.761,54.951L10.372,42.563c-3.823-1.584-8.213,0.231-9.799,4.059
	c-1.586,3.826,0.232,8.214,4.059,9.799l68.804,28.503l16.14,38.967c-11.738,8.531-16.591,24.303-10.802,38.271
	c4.982,12.059,16.631,19.85,29.678,19.85c4.23,0,8.368-0.828,12.289-2.458c16.061-6.651,23.861-24.916,17.736-41.065
	c3.654,1.387,7.473,2.099,11.371,2.099c0.001,0,0.002,0,0.002,0c13.045,0,24.7-7.786,29.692-19.833
	C182.831,112.83,182.832,104.098,179.546,96.165z M118.128,103.439c-0.878,5.474-0.313,11.088,1.69,16.377
	c-3.564-1.342-7.401-2.072-11.372-2.072c-1.689,0-3.362,0.138-5.016,0.4L93.033,93.042L118.128,103.439z M114.992,165.696
	c-2.097,0.872-4.297,1.313-6.541,1.313c-6.952,0-13.16-4.151-15.817-10.584c-3.614-8.72,0.545-18.758,9.265-22.373
	c2.1-0.869,4.303-1.31,6.547-1.31c6.957,0,13.167,4.148,15.821,10.571C127.879,152.043,123.722,162.081,114.992,165.696z
	 M165.687,115.006c-2.664,6.427-8.881,10.58-15.838,10.579c-2.244,0-4.446-0.44-6.55-1.311c-4.221-1.744-7.509-5.029-9.258-9.253
	c-1.75-4.226-1.75-8.882-0.001-13.107c2.664-6.429,8.881-10.582,15.837-10.582c2.244,0,4.445,0.44,6.548,1.311
	c4.223,1.746,7.512,5.035,9.264,9.263C167.439,106.133,167.44,110.783,165.687,115.006z"/>
<g>
</g>
<g>
</g>
<g>
</g>
<g>
</g>
<g>
</g>
<g>
</g>
<g>
</g>
<g>
</g>
<g>
</g>
<g>
</g>
<g>
</g>
<g>
</g>
<g>
</g>
<g>
</g>
<g>
</g>
</svg>
