<?xml version="1.0" encoding="iso-8859-1"?>
<!-- Generator: Adobe Illustrator 18.0.0, SVG Export Plug-In . SVG Version: 6.00 Build 0)  -->
<!DOCTYPE svg PUBLIC "-//W3C//DTD SVG 1.1//EN" "http://www.w3.org/Graphics/SVG/1.1/DTD/svg11.dtd">
<svg version="1.1" id="Capa_1" xmlns="http://www.w3.org/2000/svg" xmlns:xlink="http://www.w3.org/1999/xlink" x="0px" y="0px"
	 viewBox="0 0 198.221 198.221" style="enable-background:new 0 0 198.221 198.221;" xml:space="preserve">
<path d="M133.016,58.414h-10.133V23.777C122.883,10.666,112.221,0,99.115,0C86.004,0,75.338,10.666,75.338,23.777v34.637H65.201
	c-21.328,0-38.68,17.354-38.68,38.684v27.789v42.881v17.758v5.195c0,4.143,3.358,7.5,7.5,7.5h130.178c4.142,0,7.5-3.357,7.5-7.5
	v-5.195v-17.758v-42.881V97.098C171.699,75.768,154.346,58.414,133.016,58.414z M90.338,23.777c0-4.84,3.938-8.777,8.777-8.777
	c4.834,0,8.768,3.938,8.768,8.777v34.637H90.338V23.777z M65.201,73.414h17.637h32.545h17.633c12.073,0,22.059,9.083,23.499,20.773
	c-6.52-5.002-14.666-7.984-23.499-7.984H65.201c-8.832,0-16.976,2.981-23.494,7.983C43.147,82.496,53.13,73.414,65.201,73.414z
	 M65.201,101.203h67.814c13.059,0,23.684,10.624,23.684,23.684v35.381H41.521v-35.381C41.521,111.827,52.144,101.203,65.201,101.203
	z M41.521,175.268h115.178v7.953H41.521V175.268z"/>
<g>
</g>
<g>
</g>
<g>
</g>
<g>
</g>
<g>
</g>
<g>
</g>
<g>
</g>
<g>
</g>
<g>
</g>
<g>
</g>
<g>
</g>
<g>
</g>
<g>
</g>
<g>
</g>
<g>
</g>
</svg>
