<?xml version="1.0" encoding="iso-8859-1"?>
<!-- Generator: Adobe Illustrator 18.0.0, SVG Export Plug-In . SVG Version: 6.00 Build 0)  -->
<!DOCTYPE svg PUBLIC "-//W3C//DTD SVG 1.1//EN" "http://www.w3.org/Graphics/SVG/1.1/DTD/svg11.dtd">
<svg version="1.1" id="Capa_1" xmlns="http://www.w3.org/2000/svg" xmlns:xlink="http://www.w3.org/1999/xlink" x="0px" y="0px"
	 viewBox="0 0 191.011 191.011" style="enable-background:new 0 0 191.011 191.011;" xml:space="preserve">
<path d="M175.829,108.751h-29.402c-1.737-6.595-4.721-12.69-8.688-18.011l33.276-33.275c2.929-2.929,2.929-7.678,0-10.606
	c-2.929-2.929-7.677-2.929-10.607,0l-33.246,33.246c-2.616-1.974-5.424-3.706-8.385-5.171c6.106-6.019,9.898-14.378,9.898-23.609
	c0-4.558-0.925-8.903-2.596-12.86c5.143-12.267,2.483-26.664-7.119-36.267c-2.93-2.929-7.678-2.929-10.607,0
	c-2.929,2.929-2.929,7.678,0,10.606c2.961,2.961,4.716,6.755,5.188,10.703c-5.196-3.381-11.389-5.354-18.036-5.354
	c-6.648,0-12.84,1.973-18.037,5.354c0.473-3.948,2.228-7.742,5.188-10.703c2.929-2.929,2.929-7.678,0-10.606
	c-2.93-2.929-7.678-2.929-10.607,0c-9.602,9.602-12.261,23.998-7.119,36.263c-1.671,3.958-2.597,8.304-2.597,12.863
	c0,9.231,3.794,17.59,9.9,23.609c-2.886,1.428-5.627,3.105-8.185,5.017l-33.09-33.091c-2.929-2.929-7.677-2.929-10.607,0
	c-2.929,2.929-2.929,7.678,0,10.606l33.073,33.074c-4.043,5.369-7.082,11.533-8.841,18.212H15.181c-4.143,0-7.5,3.358-7.5,7.5
	c0,4.142,3.357,7.5,7.5,7.5h27.711c0.294,9.759,3.252,18.854,8.176,26.588l-27.87,27.868c-2.93,2.929-2.93,7.677-0.001,10.607
	c1.465,1.465,3.384,2.197,5.304,2.197c1.919,0,3.839-0.732,5.303-2.197l27.063-27.061c9.266,8.115,21.384,13.049,34.64,13.049
	s25.374-4.935,34.641-13.049l27.059,27.061c1.465,1.465,3.384,2.197,5.304,2.197c1.919,0,3.839-0.732,5.303-2.197
	c2.93-2.929,2.93-7.677,0.001-10.607l-27.868-27.87c4.924-7.734,7.881-16.829,8.175-26.587h27.711c4.143,0,7.5-3.358,7.5-7.5
	C183.329,112.109,179.972,108.751,175.829,108.751z M77.333,51.323c0-10.02,8.152-18.171,18.172-18.171
	c10.019,0,18.17,8.151,18.17,18.171c0,10.019-8.151,18.171-18.17,18.171C85.486,69.494,77.333,61.343,77.333,51.323z
	 M95.505,159.803c-11.402,0-21.63-5.102-28.541-13.135c-0.214-0.292-0.445-0.574-0.707-0.839
	c-5.251-6.474-8.406-14.714-8.406-23.681c0-10.371,4.215-19.775,11.021-26.592c0.03-0.029,0.063-0.054,0.094-0.084
	c0.016-0.016,0.028-0.032,0.043-0.048c6.81-6.751,16.174-10.93,26.497-10.93c10.378,0,19.789,4.22,26.606,11.035
	c0.038,0.04,0.07,0.082,0.109,0.121c0.016,0.016,0.032,0.028,0.048,0.043c6.729,6.806,10.891,16.152,10.891,26.455
	C133.16,142.911,116.268,159.803,95.505,159.803z"/>
<g>
</g>
<g>
</g>
<g>
</g>
<g>
</g>
<g>
</g>
<g>
</g>
<g>
</g>
<g>
</g>
<g>
</g>
<g>
</g>
<g>
</g>
<g>
</g>
<g>
</g>
<g>
</g>
<g>
</g>
</svg>
