<?xml version="1.0" encoding="iso-8859-1"?>
<!-- Generator: Adobe Illustrator 18.0.0, SVG Export Plug-In . SVG Version: 6.00 Build 0)  -->
<!DOCTYPE svg PUBLIC "-//W3C//DTD SVG 1.1//EN" "http://www.w3.org/Graphics/SVG/1.1/DTD/svg11.dtd">
<svg version="1.1" id="Capa_1" xmlns="http://www.w3.org/2000/svg" xmlns:xlink="http://www.w3.org/1999/xlink" x="0px" y="0px"
	 viewBox="0 0 207.811 207.811" style="enable-background:new 0 0 207.811 207.811;" xml:space="preserve">
<path d="M170.861,126.08c0.778-4.197,1.203-8.521,1.203-12.945c0-4.426-0.425-8.75-1.203-12.948c1.018-0.8,2.008-1.646,2.944-2.58
	c10.218-10.224,11.834-24.618,3.681-32.769c-6.4-6.404-16.909-6.725-26.055-1.483c-7.523-7.478-16.719-13.208-26.965-16.525v-5.996
	c3.095-4.375,4.777-9.63,4.777-15.039C129.243,11.572,117.866,0,103.88,0S78.517,11.572,78.517,25.795
	c0,5.413,1.682,10.667,4.777,15.04v5.994c-10.246,3.317-19.443,9.047-26.965,16.525c-9.146-5.24-19.653-4.919-26.051,1.48
	c-4.091,4.087-5.868,10.128-4.876,16.573c0.896,5.824,3.934,11.577,8.557,16.199c0.934,0.934,1.924,1.78,2.94,2.579
	c-0.778,4.198-1.203,8.522-1.203,12.948c0,4.425,0.425,8.748,1.203,12.946c-1.018,0.8-2.008,1.646-2.94,2.58
	c-4.622,4.622-7.661,10.374-8.557,16.198c-0.992,6.444,0.785,12.484,4.875,16.572c3.448,3.448,8.088,5.132,13.065,5.132
	c4.26,0,8.764-1.24,12.981-3.656c8.858,8.809,20.047,15.177,32.525,18.053c1.005,13.509,5.35,26.851,15.165,26.851
	c9.83,0,14.173-13.384,15.168-26.915c12.369-2.906,23.459-9.244,32.253-17.988c4.218,2.417,8.722,3.657,12.982,3.657
	c4.977,0,9.618-1.685,13.066-5.133c8.153-8.153,6.537-22.547-3.682-32.77C172.868,127.727,171.878,126.88,170.861,126.08z
	 M103.88,167.684c-9.366,0-18.168-2.505-25.82-6.883l10.076-17.457h31.486L129.7,160.8
	C122.049,165.178,113.246,167.684,103.88,167.684z M103.88,58.582c9.365,0,18.168,2.505,25.819,6.883L119.622,82.92H88.136
	L78.061,65.465C85.712,61.087,94.515,58.582,103.88,58.582z M156.704,106.885h-16.029L130.449,89.17l9.361-16.215
	C148.996,81.606,155.21,93.519,156.704,106.885z M119.623,130.844H88.135l-10.224-17.709L88.136,95.42h31.487l10.226,17.714
	L119.623,130.844z M77.31,89.17l-10.225,17.715H51.056c1.494-13.366,7.708-25.279,16.894-33.93L77.31,89.17z M51.056,119.385h16.029
	l10.225,17.71l-9.359,16.216C58.764,144.661,52.55,132.749,51.056,119.385z M130.449,137.093l10.225-17.709h16.031
	c-1.494,13.364-7.708,25.275-16.893,33.926L130.449,137.093z M168.647,73.676c2.349,2.347,2.006,7.849-1.767,12.883
	c-1.93-4.741-4.364-9.213-7.227-13.359C163.412,71.65,166.893,71.921,168.647,73.676z M94.28,34.614
	c-2.104-2.442-3.263-5.574-3.263-8.819c0-7.331,5.771-13.295,12.863-13.295c7.093,0,12.863,5.964,12.863,13.295
	c0,3.242-1.159,6.375-3.265,8.822c-0.976,1.134-1.513,2.581-1.513,4.077v5.394c-2.654-0.321-5.349-0.506-8.086-0.506
	c-2.737,0-5.432,0.185-8.086,0.506v-5.394C95.794,37.196,95.257,35.749,94.28,34.614z M37.757,79.507
	c-0.223-1.448-0.343-4.131,1.359-5.833c1.752-1.753,5.233-2.023,8.99-0.474c-2.86,4.144-5.294,8.612-7.223,13.351
	C39.227,84.325,38.118,81.86,37.757,79.507z M39.116,152.591c-1.701-1.7-1.581-4.384-1.358-5.832
	c0.361-2.352,1.47-4.816,3.127-7.042c1.929,4.738,4.362,9.206,7.222,13.35C44.349,154.615,40.869,154.346,39.116,152.591z
	 M104.014,193.155c-0.925-2.262-1.892-5.852-2.442-10.531c0.768,0.026,1.534,0.06,2.309,0.06c0.864,0,1.721-0.034,2.577-0.066
	C105.907,187.299,104.939,190.892,104.014,193.155z M168.647,152.592c-1.755,1.754-5.235,2.024-8.993,0.475
	c2.861-4.146,5.297-8.617,7.226-13.357C170.652,144.745,170.993,150.245,168.647,152.592z"/>
<g>
</g>
<g>
</g>
<g>
</g>
<g>
</g>
<g>
</g>
<g>
</g>
<g>
</g>
<g>
</g>
<g>
</g>
<g>
</g>
<g>
</g>
<g>
</g>
<g>
</g>
<g>
</g>
<g>
</g>
</svg>
